<?xml version="1.0" encoding="UTF-8" standalone="no"?>
<svg
   viewBox="0 0 2049 512"
   version="1.1"
   id="svg10"
   sodipodi:docname="logo.svg"
   width="2049"
   height="512"
   inkscape:version="1.1.2 (0a00cf5339, 2022-02-04)"
   xmlns:inkscape="http://www.inkscape.org/namespaces/inkscape"
   xmlns:sodipodi="http://sodipodi.sourceforge.net/DTD/sodipodi-0.dtd"
   xmlns="http://www.w3.org/2000/svg"
   xmlns:svg="http://www.w3.org/2000/svg"
   xmlns:rdf="http://www.w3.org/1999/02/22-rdf-syntax-ns#"
   xmlns:cc="http://creativecommons.org/ns#"
   xmlns:dc="http://purl.org/dc/elements/1.1/">
  <sodipodi:namedview
     id="namedview12"
     pagecolor="#000000"
     bordercolor="#666666"
     borderopacity="1.0"
     inkscape:pageshadow="2"
     inkscape:pageopacity="1"
     inkscape:pagecheckerboard="0"
     showgrid="false"
     inkscape:zoom="0.55299325"
     inkscape:cx="1232.384"
     inkscape:cy="108.50042"
     inkscape:window-width="1920"
     inkscape:window-height="1051"
     inkscape:window-x="0"
     inkscape:window-y="0"
     inkscape:window-maximized="1"
     inkscape:current-layer="svg10" />
  <defs
     id="defs4">
    <rect
       x="557.83024"
       y="35.766822"
       width="1465.0036"
       height="432.03281"
       id="rect6970" />
    <style
       id="style2">.cls-1{fill:#fff;}</style>
  </defs>
  <title
     id="title6">logo</title>
  <path
     class="cls-1"
     d="M 501.1,395.7 384,278.6 C 360.9,255.5 326.4,251 298.6,264.7 L 192,158.1 V 96 L 64,0 0,64 96,192 h 62.1 l 106.6,106.6 c -13.6,27.8 -9.2,62.3 13.9,85.4 l 117.1,117.1 c 14.6,14.6 38.2,14.6 52.7,0 l 52.7,-52.7 c 14.5,-14.6 14.5,-38.2 0,-52.7 z M 331.7,225 c 28.3,0 54.9,11 74.9,31 l 19.4,19.4 c 15.8,-6.9 30.8,-16.5 43.8,-29.5 37.1,-37.1 49.7,-89.3 37.9,-136.7 -2.2,-9 -13.5,-12.1 -20.1,-5.5 L 413.2,178.1 345.3,166.8 334,98.9 408.4,24.5 C 415,17.9 411.8,6.6 402.7,4.3 355.3,-7.4 303.1,5.2 266.1,42.2 237.6,70.7 224.2,108.3 224.9,145.8 l 82.1,82.1 c 8.1,-1.9 16.5,-2.9 24.7,-2.9 z M 227.8,307 171.1,250.3 18.7,402.8 c -25,25 -25,65.5 0,90.5 25,25 65.5,25 90.5,0 L 232.8,369.7 c -7.6,-19.9 -9.9,-41.6 -5,-62.7 z M 64,472 c -13.2,0 -24,-10.8 -24,-24 0,-13.3 10.7,-24 24,-24 13.3,0 24,10.7 24,24 0,13.2 -10.7,24 -24,24 z"
     id="path8" />
  <metadata
     id="metadata14">
    <rdf:RDF>
      <cc:Work
         rdf:about="">
        <dc:title>logo</dc:title>
      </cc:Work>
    </rdf:RDF>
  </metadata>
  <text
     xml:space="preserve"
     id="text6968"
     style="font-style:normal;font-weight:normal;font-size:96px;line-height:1.25;font-family:sans-serif;white-space:pre;shape-inside:url(#rect6970);fill:#000000;fill-opacity:1;stroke:none"
     transform="matrix(5.3269269,0,0,5.3269269,-2452.1053,-266.43505)"><tspan
       x="557.83008"
       y="123.1156"
       id="tspan33331"><tspan
         style="font-weight:bold;font-family:'Blue Highway';-inkscape-font-specification:'Blue Highway, Bold';fill:#ffffff"
         id="tspan33329">AppKeep</tspan></tspan></text>
</svg>
