<?xml version="1.0" encoding="UTF-8" standalone="no"?>
<!-- Created with Inkscape (http://www.inkscape.org/) -->

<svg
   width="136.05191mm"
   height="29.135166mm"
   viewBox="0 0 136.05191 29.135166"
   version="1.1"
   id="svg44706"
   inkscape:version="1.1.2 (0a00cf5339, 2022-02-04)"
   sodipodi:docname="logo.svg"
   inkscape:export-filename="/home/georgios/Projects/GGY/material/logo/logo.png"
   inkscape:export-xdpi="96"
   inkscape:export-ydpi="96"
   xmlns:inkscape="http://www.inkscape.org/namespaces/inkscape"
   xmlns:sodipodi="http://sodipodi.sourceforge.net/DTD/sodipodi-0.dtd"
   xmlns="http://www.w3.org/2000/svg"
   xmlns:svg="http://www.w3.org/2000/svg">
  <sodipodi:namedview
     id="namedview44708"
     pagecolor="#ffffff"
     bordercolor="#666666"
     borderopacity="1.0"
     inkscape:pageshadow="2"
     inkscape:pageopacity="0.0"
     inkscape:pagecheckerboard="0"
     inkscape:document-units="mm"
     showgrid="false"
     fit-margin-top="0"
     fit-margin-left="0"
     fit-margin-right="0"
     fit-margin-bottom="0"
     inkscape:zoom="0.95948735"
     inkscape:cx="282.96361"
     inkscape:cy="128.19346"
     inkscape:window-width="1920"
     inkscape:window-height="1051"
     inkscape:window-x="3840"
     inkscape:window-y="0"
     inkscape:window-maximized="1"
     inkscape:current-layer="layer1" />
  <defs
     id="defs44703" />
  <g
     inkscape:label="Layer 1"
     inkscape:groupmode="layer"
     id="layer1"
     transform="translate(-23.52467,-126.06741)">
    <g
       id="g44573"
       transform="translate(-37.792343,46.227379)"
       inkscape:export-filename="/home/georgios/Projects/GGY/material/logo.png"
       inkscape:export-xdpi="96"
       inkscape:export-ydpi="96">
      <path
         id="path54663-3"
         style="fill:#000000;fill-opacity:0.998039;stroke-width:0.432697"
         class="line"
         d="m 61.317013,90.952835 2.786007,2.766567 v 2.82135 12.434448 h 4.63835 l 20.066019,-2e-4 v -3.88641 H 68.481809 V 89.862728 l 7.112635,-5.867123 3.138303,1.067659 10.074642,0.140441 -13.212945,-5.363671 z"
         sodipodi:nodetypes="cccccccccccccc"
         inkscape:export-filename="/home/georgios/Projects/GGY/material/alpha.png"
         inkscape:export-xdpi="96"
         inkscape:export-ydpi="96" />
      <path
         id="path32204"
         style="fill:#6750a4;fill-opacity:1;stroke-width:0.0711351;stroke-miterlimit:4;stroke-dasharray:none"
         d="m 79.308594,86.755859 c -2.993823,0.0178 -5.959962,1.637756 -7.441788,4.263963 -1.612456,2.658867 -1.490729,6.243362 0.293731,8.791015 1.765008,2.691683 5.149354,4.162933 8.326288,3.705233 1.220844,-0.15829 2.42565,-0.57195 3.464347,-1.23677 0.144343,0.43235 -0.350333,1.50372 0.4,1.33008 1.246224,-1e-5 2.492448,0 3.738672,0 0,-5.618495 0,-11.236984 0,-16.855474 -1.379558,0 -2.759115,0 -4.138672,0 -0.119235,0.348377 0.295909,1.69863 -0.320313,1.115235 -1.336024,-0.715166 -2.806554,-1.092593 -4.322265,-1.113282 z m 0.314453,5.115235 c 2.013172,0.08025 3.635009,2.222011 3.026687,4.174125 -0.494776,1.9678 -2.914039,3.022965 -4.722545,2.147165 -1.79653,-0.729567 -2.596697,-3.180066 -1.444948,-4.776701 0.646045,-1.059683 1.924464,-1.609884 3.140806,-1.544589 z" />
      <path
         id="path32204-3"
         style="fill:#6750a4;fill-opacity:1;stroke-width:0.0711351;stroke-miterlimit:4;stroke-dasharray:none"
         d="m 98.480862,103.62629 c 2.993818,-0.0178 5.959958,-1.63776 7.441778,-4.263971 1.61246,-2.658867 1.49073,-6.243357 -0.29373,-8.791014 -1.76501,-2.69168 -5.14935,-4.16293 -8.326278,-3.70523 -1.22084,0.15829 -2.42565,0.57195 -3.46434,1.23677 -0.14435,-0.43235 0.35033,-1.50372 -0.4,-1.33008 -1.24623,10e-6 -2.49245,0 -3.73868,0 V 108.975 h 4.13868 c 0.11923,-0.34838 -0.29591,-7.04539 0.32031,-6.462 1.33602,0.71517 2.80655,1.0926 4.32226,1.11329 z m -0.31445,-5.115242 c -2.01317,-0.08025 -3.63501,-2.222011 -3.02668,-4.174126 0.49477,-1.9678 2.91403,-3.02296 4.722534,-2.14716 1.796524,0.72956 2.596694,3.18006 1.444944,4.776697 -0.64605,1.059683 -1.924461,1.609883 -3.140798,1.544589 z"
         sodipodi:nodetypes="cccccccccccccccc" />
      <path
         id="path32204-3-3"
         style="fill:#6750a4;fill-opacity:1;stroke-width:0.0711351;stroke-miterlimit:4;stroke-dasharray:none"
         d="m 116.49725,103.62577 c 2.99382,-0.0178 5.95996,-1.63747 7.44178,-4.263683 1.61246,-2.658867 1.49073,-6.243357 -0.29373,-8.791014 -1.76501,-2.69168 -5.14935,-4.16293 -8.32628,-3.70523 -1.22084,0.15829 -2.42565,0.57195 -3.46434,1.23677 -0.14435,-0.43235 0.35033,-1.503485 -0.4,-1.329845 -1.24623,1e-5 -2.49245,-2.35e-4 -3.73868,-2.35e-4 v 22.202237 h 4.13868 c 0.11923,-0.34838 -0.29591,-7.04539 0.32031,-6.462 1.33602,0.71517 2.80655,1.09231 4.32226,1.113 z m -0.31445,-5.114954 c -2.01317,-0.08025 -3.63501,-2.222011 -3.02668,-4.174126 0.49477,-1.9678 2.91403,-3.02296 4.72254,-2.14716 1.79652,0.72956 2.59669,3.18006 1.44494,4.776697 -0.64605,1.059683 -1.92446,1.609883 -3.1408,1.544589 z"
         sodipodi:nodetypes="cccccccccccccccc" />
      <path
         id="path32204-3-3-8-8"
         style="fill:#6750a4;fill-opacity:1;stroke-width:0.0711351;stroke-miterlimit:4;stroke-dasharray:none"
         d="m 188.7954,103.62577 c 2.99382,-0.0178 5.95996,-1.63748 7.44178,-4.263679 1.61246,-2.658871 1.49073,-6.243361 -0.29373,-8.791018 -1.76501,-2.69168 -5.14935,-4.16293 -8.32628,-3.70523 -1.22084,0.15829 -2.42565,0.57195 -3.46434,1.23677 -0.14435,-0.43235 0.35033,-1.503485 -0.4,-1.329845 -1.24623,1e-5 -2.49245,-2.35e-4 -3.73868,-2.35e-4 v 22.202237 h 4.13868 c 0.11923,-0.34838 -0.29591,-7.0454 0.32031,-6.46201 1.33602,0.71517 2.80655,1.09232 4.32226,1.11301 z m -0.31445,-5.114954 c -2.01317,-0.08025 -3.63501,-2.222011 -3.02668,-4.174126 0.49477,-1.9678 2.91403,-3.02296 4.72254,-2.14716 1.79652,0.72956 2.59669,3.18006 1.44494,4.776697 -0.64605,1.059683 -1.92446,1.609883 -3.1408,1.544589 z"
         sodipodi:nodetypes="cccccccccccccccc" />
      <path
         id="path32204-3-3-6"
         style="fill:#6750a4;fill-opacity:1;stroke-width:0.0677306;stroke-miterlimit:4;stroke-dasharray:none"
         d="M 125.73239,80.954633 V 104.6868 h 4.66801 v -7.079954 l 5.83136,7.079954 h 5.26813 l -8.30428,-9.816222 7.77511,-7.036776 h -5.26813 l -5.30219,4.790403 V 80.954633 c -1.1298,1.1e-5 -3.53822,0 -4.66801,0 z"
         sodipodi:nodetypes="cccccccccccc" />
      <path
         id="path38557"
         style="fill:#6750a4;fill-opacity:1;stroke-width:0.32493;stroke-miterlimit:4;stroke-dasharray:none"
         d="m 148.10184,86.754355 c -0.0791,2.06e-4 -0.1581,0.0013 -0.23719,0.0031 -2.78459,0.05249 -5.58065,1.147633 -7.52357,3.169314 -1.47444,1.511541 -2.40067,3.578291 -2.41174,5.701461 -0.037,2.065989 0.79294,4.102481 2.17144,5.62859 1.8772,2.10413 4.65968,3.29233 7.45691,3.41634 2.95282,0.14569 5.99672,-0.87775 8.1225,-2.96261 0.63759,-0.61513 1.16891,-1.33146 1.60094,-2.103235 -4.12274,-1.285076 0,0 -4.12274,-1.285076 -0.11186,0.184756 -0.24029,0.358574 -0.3948,0.514178 -1.01931,1.072004 -2.51024,1.578053 -3.96049,1.666053 -1.63341,0.098 -3.37302,-0.35506 -4.56096,-1.527043 -0.44819,-0.447556 -0.79955,-1.000197 -0.97048,-1.612821 1.82516,-0.0057 3.65069,0.0114 5.47563,-0.0088 3.13423,-0.09937 6.26936,0.02032 9.40408,0.01241 0.1496,-0.902462 0.22308,-1.826197 0.0847,-2.735234 -0.2919,-2.20046 -1.55451,-4.203686 -3.28559,-5.566068 -1.92714,-1.534335 -4.39535,-2.317364 -6.84867,-2.310969 z m 0.37569,4.268472 c 0.0755,2.65e-4 0.15097,0.0019 0.22634,0.0041 1.50311,0.05247 3.06525,0.545004 4.11913,1.661395 0.33884,0.363876 0.61091,0.796086 0.75964,1.272276 h -10.36732 c 0.22937,-1.014077 1.08467,-1.744883 1.973,-2.201934 1.01373,-0.5133 2.15658,-0.740246 3.28921,-0.735873 z"
         sodipodi:nodetypes="cccccccccccccccccccscccccss" />
      <path
         id="path38557-3"
         style="fill:#6750a4;fill-opacity:1;stroke-width:0.32493;stroke-miterlimit:4;stroke-dasharray:none"
         d="m 169.14484,86.754355 c -0.0791,2.06e-4 -0.1581,0.0013 -0.23719,0.0031 -2.78459,0.05249 -5.58065,1.147633 -7.52357,3.169314 -1.47444,1.511541 -2.40067,3.578291 -2.41174,5.701461 -0.037,2.065989 0.79294,4.102481 2.17144,5.62859 1.8772,2.10413 4.65968,3.29233 7.45691,3.41634 2.95282,0.14569 5.99672,-0.87775 8.1225,-2.96261 0.63759,-0.61513 1.16891,-1.33146 1.60094,-2.103235 -4.12274,-1.285076 0,0 -4.12274,-1.285076 -0.11186,0.184756 -0.24029,0.358574 -0.3948,0.514178 -1.01931,1.072004 -2.51024,1.578053 -3.96049,1.666053 -1.63341,0.098 -3.37302,-0.35506 -4.56096,-1.527043 -0.44819,-0.447556 -0.79955,-1.000197 -0.97048,-1.612821 1.82516,-0.0057 3.65069,0.0114 5.47563,-0.0088 3.13423,-0.09937 6.26936,0.02032 9.40408,0.01241 0.1496,-0.902462 0.22308,-1.826197 0.0847,-2.735234 -0.2919,-2.20046 -1.55451,-4.203686 -3.28559,-5.566068 -1.92714,-1.534335 -4.39535,-2.317364 -6.84867,-2.310969 z m 0.37569,4.268472 c 0.0755,2.65e-4 0.15097,0.0019 0.22634,0.0041 1.50311,0.05247 3.06525,0.545004 4.11913,1.661395 0.33884,0.363876 0.61091,0.796086 0.75964,1.272276 h -10.36732 c 0.22937,-1.014077 1.08467,-1.744883 1.973,-2.201934 1.01373,-0.5133 2.15658,-0.740246 3.28921,-0.735873 z"
         sodipodi:nodetypes="cccccccccccccccccccscccccss" />
    </g>
  </g>
</svg>
