<?xml version="1.0" encoding="UTF-8" standalone="no"?>
<!-- Created with Inkscape (http://www.inkscape.org/) -->

<svg
   width="27.460058mm"
   height="29.18169mm"
   viewBox="0 0 27.460059 29.18169"
   version="1.1"
   id="svg49612"
   xmlns="http://www.w3.org/2000/svg"
   xmlns:svg="http://www.w3.org/2000/svg">
  <defs
     id="defs49609" />
  <g
     id="layer1"
     transform="translate(-63.392033,-132.62323)">
    <g
       id="g49987">
      <rect
         style="font-variation-settings:normal;vector-effect:none;fill:#6750a4;fill-opacity:1;fill-rule:evenodd;stroke-width:0.264583;stroke-linecap:butt;stroke-linejoin:miter;stroke-miterlimit:4;stroke-dasharray:none;stroke-dashoffset:0;stroke-opacity:1;-inkscape-stroke:none;stop-color:#000000"
         id="rect912"
         width="27.460058"
         height="29.18169"
         x="63.392033"
         y="132.62323"
         ry="1.1893098" />
      <path
         id="path54663-3-36-3"
         style="fill:#ffffff;fill-opacity:0.998039;stroke-width:0.373292"
         class="line"
         d="m 65.263968,144.2336 2.403513,2.38675 v 2.434 10.7273 h 4.001546 l 17.311132,-1.7e-4 v -3.35284 H 71.445101 v -13.13549 l 6.136133,-5.06161 2.707442,0.92108 8.691483,0.12116 -11.398925,-4.62729 z" />
      <path
         id="path32204-7-6"
         style="fill:#ffffff;fill-opacity:1;stroke-width:0.0580096;stroke-miterlimit:4;stroke-dasharray:none"
         d="m 80.380591,141.40961 c -2.441418,0.0145 -4.860261,1.33556 -6.068668,3.4772 -1.314934,2.16826 -1.215667,5.09137 0.239533,7.16894 1.439338,2.19502 4.199223,3.39481 6.789965,3.02156 0.995581,-0.12908 1.978082,-0.46642 2.825124,-1.00857 0.11771,0.35258 -0.285692,1.22626 0.326194,1.08466 1.016277,-1e-5 2.032554,0 3.048832,0 0,-4.58179 0,-9.16359 0,-13.74538 -1.125009,0 -2.250018,0 -3.375026,0 -0.09723,0.28409 0.241309,1.3852 -0.261211,0.90946 -1.089508,-0.58321 -2.288703,-0.891 -3.524743,-0.90787 z m 0.256432,4.1714 c 1.641712,0.0655 2.964296,1.81201 2.468219,3.40393 -0.403483,1.60471 -2.376357,2.46519 -3.851166,1.75099 -1.465044,-0.59496 -2.117568,-2.5933 -1.178334,-3.89533 0.52684,-0.86416 1.569372,-1.31284 2.561281,-1.25959 z" />
    </g>
  </g>
</svg>
