<?xml version="1.0" encoding="UTF-8" standalone="no"?>
<!-- Created with Inkscape (http://www.inkscape.org/) -->

<svg
   width="27.490377mm"
   height="29.13517mm"
   viewBox="0 0 27.490377 29.13517"
   version="1.1"
   id="svg4528"
   inkscape:version="1.1.2 (0a00cf5339, 2022-02-04)"
   sodipodi:docname="logo-grey-sm.svg"
   xmlns:inkscape="http://www.inkscape.org/namespaces/inkscape"
   xmlns:sodipodi="http://sodipodi.sourceforge.net/DTD/sodipodi-0.dtd"
   xmlns="http://www.w3.org/2000/svg"
   xmlns:svg="http://www.w3.org/2000/svg">
  <sodipodi:namedview
     id="namedview4530"
     pagecolor="#ffffff"
     bordercolor="#666666"
     borderopacity="1.0"
     inkscape:pageshadow="2"
     inkscape:pageopacity="0.0"
     inkscape:pagecheckerboard="0"
     inkscape:document-units="mm"
     showgrid="false"
     fit-margin-top="0"
     fit-margin-left="0"
     fit-margin-right="0"
     fit-margin-bottom="0"
     inkscape:zoom="0.61647026"
     inkscape:cx="60.830185"
     inkscape:cy="-6.4885531"
     inkscape:window-width="1920"
     inkscape:window-height="1051"
     inkscape:window-x="0"
     inkscape:window-y="0"
     inkscape:window-maximized="1"
     inkscape:current-layer="layer1" />
  <defs
     id="defs4525" />
  <g
     inkscape:label="Layer 1"
     inkscape:groupmode="layer"
     id="layer1"
     transform="translate(-88.831402,-150.24166)">
    <g
       id="g4608">
      <path
         id="path54663-3-3"
         style="fill:#4d4d4d;fill-opacity:0.998039;stroke-width:0.432697"
         class="line"
         d="m 88.831402,161.35446 2.786007,2.76657 v 2.82135 12.43445 h 4.63835 l 20.066021,-2e-4 v -3.88641 H 95.996198 v -15.22586 l 7.112632,-5.86713 3.13831,1.06766 10.07464,0.14044 -13.21295,-5.36367 z"
         sodipodi:nodetypes="cccccccccccccc"
         inkscape:export-filename="/home/georgios/Projects/GGY/material/alpha.png"
         inkscape:export-xdpi="96"
         inkscape:export-ydpi="96" />
      <path
         id="path32204-6"
         style="fill:#4d4d4d;fill-opacity:0.998039;stroke-width:0.0711351;stroke-miterlimit:4;stroke-dasharray:none"
         d="m 106.82298,157.15749 c -2.99382,0.0178 -5.95996,1.63775 -7.441785,4.26396 -1.612456,2.65887 -1.490729,6.24336 0.293731,8.79102 1.765004,2.69168 5.149354,4.16293 8.326284,3.70523 1.22085,-0.15829 2.42565,-0.57195 3.46435,-1.23677 0.14434,0.43235 -0.35033,1.50372 0.4,1.33008 1.24622,-1e-5 2.49245,0 3.73867,0 0,-5.6185 0,-11.23698 0,-16.85547 -1.37956,0 -2.75911,0 -4.13867,0 -0.11923,0.34837 0.29591,1.69863 -0.32031,1.11523 -1.33603,-0.71517 -2.80656,-1.09259 -4.32227,-1.11328 z m 0.31446,5.11523 c 2.01317,0.0803 3.63501,2.22201 3.02668,4.17413 -0.49477,1.9678 -2.91404,3.02296 -4.72254,2.14716 -1.79653,-0.72956 -2.5967,-3.18006 -1.44495,-4.7767 0.64604,-1.05968 1.92446,-1.60988 3.14081,-1.54459 z" />
    </g>
  </g>
</svg>
