<?xml version="1.0" encoding="UTF-8" standalone="no"?>
<!-- Created with Inkscape (http://www.inkscape.org/) -->

<svg
   width="119.57957mm"
   height="29.18169mm"
   viewBox="0 0 119.57957 29.18169"
   version="1.1"
   id="svg49612"
   xmlns="http://www.w3.org/2000/svg"
   xmlns:svg="http://www.w3.org/2000/svg">
  <defs
     id="defs49609" />
  <g
     id="layer1"
     transform="translate(6.5701333,-134.33835)">
    <g
       id="g49339"
       transform="translate(-9.6647006,130.47064)">
      <rect
         style="font-variation-settings:normal;opacity:1;vector-effect:none;fill:#6750a4;fill-opacity:1;fill-rule:evenodd;stroke-width:0.264583;stroke-linecap:butt;stroke-linejoin:miter;stroke-miterlimit:4;stroke-dasharray:none;stroke-dashoffset:0;stroke-opacity:1;-inkscape-stroke:none;stop-color:#000000;stop-opacity:1"
         id="rect912"
         width="27.460058"
         height="29.18169"
         x="3.0945673"
         y="3.8677068"
         ry="1.1893098" />
      <path
         id="path32204-3-5-7"
         style="fill:#6750a4;fill-opacity:1;stroke-width:0.061329;stroke-miterlimit:4;stroke-dasharray:none"
         d="m 38.851562,26.41475 c 2.581115,-0.01535 5.138369,-1.411992 6.415919,-3.676175 1.390177,-2.292332 1.285229,-5.382695 -0.253241,-7.579155 -1.5217,-2.32063 -4.439504,-3.589065 -7.178487,-3.194459 -1.052545,0.13647 -2.09127,0.493106 -2.986777,1.066278 -0.124449,-0.37275 0.302037,-1.29643 -0.344857,-1.146725 -1.074436,9e-6 -2.148863,0 -3.223298,0 v 19.141618 h 3.568155 c 0.102794,-0.300356 -0.255116,-6.074172 0.276155,-5.571204 1.15185,0.616583 2.419665,0.941984 3.726431,0.959822 z m -0.271103,-4.410096 c -1.735651,-0.06923 -3.133917,-1.915704 -2.609447,-3.598711 0.426566,-1.696536 2.512327,-2.606242 4.071526,-1.851172 1.54887,0.628989 2.238734,2.741684 1.245756,4.118217 -0.556992,0.913609 -1.659171,1.387964 -2.707835,1.331666 z" />
      <path
         id="path32204-3-3-3-5"
         style="fill:#6750a4;fill-opacity:1;stroke-width:0.0613287;stroke-miterlimit:4;stroke-dasharray:none"
         d="m 54.626067,26.116388 c 2.58105,-0.01535 5.138237,-1.411766 6.415752,-3.675987 1.390145,-2.292378 1.285196,-5.382792 -0.253231,-7.579281 -1.521662,-2.320667 -4.439389,-3.589124 -7.178303,-3.194512 -1.052519,0.136473 -2.091216,0.493113 -2.986698,1.066299 -0.124447,-0.372758 0.302029,-1.296255 -0.34485,-1.146548 -1.074407,9e-6 -2.148806,-1.99e-4 -3.223214,-1.99e-4 v 19.141937 h 3.568064 c 0.102791,-0.30036 -0.25511,-6.074274 0.276147,-5.571296 1.151818,0.616592 2.419601,0.941749 3.726333,0.959587 z m -0.271096,-4.40992 c -1.735607,-0.06923 -3.133836,-1.915734 -2.609379,-3.598779 0.426554,-1.696565 2.512262,-2.606284 4.071424,-1.851202 1.548827,0.629 2.238675,2.741729 1.24572,4.118293 -0.556976,0.913617 -1.659126,1.387978 -2.707765,1.331688 z" />
      <path
         id="path32204-3-3-8-8-5-3"
         style="fill:#6750a4;fill-opacity:1;stroke-width:0.0613287;stroke-miterlimit:4;stroke-dasharray:none"
         d="m 115.28269,26.116388 c 2.58104,-0.01535 5.13823,-1.411775 6.41575,-3.675978 1.39014,-2.292387 1.28519,-5.382801 -0.25323,-7.57929 -1.52166,-2.320667 -4.43939,-3.589124 -7.17831,-3.194512 -1.05252,0.136473 -2.09121,0.493113 -2.9867,1.066299 -0.12444,-0.372758 0.30204,-1.296255 -0.34484,-1.146548 -1.07441,9e-6 -2.14881,-1.99e-4 -3.22322,-1.99e-4 v 19.141937 h 3.56806 c 0.1028,-0.30036 -0.2551,-6.074282 0.27615,-5.571304 1.15181,0.616592 2.4196,0.941757 3.72634,0.959595 z m -0.2711,-4.40992 c -1.73562,-0.06923 -3.13384,-1.915734 -2.60938,-3.598779 0.42656,-1.696565 2.51226,-2.606284 4.07143,-1.851202 1.54883,0.629 2.23867,2.741729 1.24572,4.118293 -0.55698,0.913617 -1.65913,1.387978 -2.70777,1.331688 z" />
      <path
         id="path32204-3-3-6-6-5"
         style="fill:#6750a4;fill-opacity:1;stroke-width:0.0560571;stroke-miterlimit:4;stroke-dasharray:none"
         d="M 62.753428,6.7714028 V 26.413261 h 3.863466 V 20.55356 l 4.826309,5.859701 h 4.360153 l -6.873015,-8.124368 6.435048,-5.823963 h -4.360152 l -4.388343,3.964761 V 6.7714028 c -0.935076,8.3e-6 -2.928399,0 -3.863466,0 z" />
      <path
         id="path38557-2-6"
         style="fill:#6750a4;fill-opacity:1;stroke-width:0.268928;stroke-miterlimit:4;stroke-dasharray:none"
         d="m 81.267442,11.571632 c -0.06546,1.74e-4 -0.130852,8.28e-4 -0.19631,0.0025 -2.304657,0.04344 -4.61881,0.949832 -6.226862,2.62307 -1.220316,1.251022 -1.986907,2.961562 -1.996071,4.718799 -0.03062,1.70991 0.656276,3.395405 1.797187,4.658486 1.55366,1.741478 3.856572,2.724887 6.171692,2.827525 2.443893,0.120578 4.963168,-0.726468 6.722565,-2.451996 0.5277,-0.509111 0.967445,-1.101981 1.325014,-1.740733 -3.412175,-1.063594 0,0 -3.412175,-1.063594 -0.09258,0.152917 -0.198875,0.296779 -0.326756,0.42556 -0.843629,0.887246 -2.077592,1.306068 -3.277888,1.378902 -1.351887,0.0811 -2.791671,-0.293865 -3.774866,-1.263852 -0.370944,-0.37042 -0.661746,-0.827812 -0.803215,-1.334844 1.510588,-0.0049 3.021484,0.0095 4.53189,-0.0075 2.594037,-0.08226 5.188818,0.0168 7.783262,0.01026 0.123816,-0.746918 0.18463,-1.511449 0.0701,-2.263805 -0.241591,-1.821203 -1.286586,-3.479173 -2.719309,-4.606742 -1.594992,-1.269892 -3.6378,-1.917965 -5.668284,-1.912669 z m 0.310939,3.532786 c 0.06248,2.25e-4 0.124948,0.0016 0.18733,0.0033 1.244044,0.04345 2.536945,0.451069 3.409186,1.375054 0.28044,0.301156 0.505618,0.658873 0.628714,1.052991 h -8.580485 c 0.189839,-0.839293 0.897726,-1.444147 1.63295,-1.822421 0.839009,-0.424832 1.784887,-0.612666 2.722305,-0.609042 z" />
      <path
         id="path38557-3-9-2"
         style="fill:#6750a4;fill-opacity:1;stroke-width:0.268928;stroke-miterlimit:4;stroke-dasharray:none"
         d="m 98.683628,11.571632 c -0.06541,1.74e-4 -0.130853,8.28e-4 -0.196312,0.0025 -2.304665,0.04344 -4.618813,0.949832 -6.226865,2.62307 -1.220317,1.251022 -1.986908,2.961562 -1.99607,4.718799 -0.03062,1.70991 0.656273,3.395405 1.797186,4.658486 1.55366,1.741478 3.856572,2.724887 6.171701,2.827525 2.443892,0.120578 4.963172,-0.726468 6.722572,-2.451996 0.5277,-0.509111 0.96744,-1.101981 1.32501,-1.740733 -3.41217,-1.063594 0,0 -3.41217,-1.063594 -0.0925,0.152917 -0.19888,0.296779 -0.32677,0.42556 -0.84362,0.887246 -2.07759,1.306068 -3.277892,1.378902 -1.351884,0.0811 -2.791673,-0.293865 -3.774866,-1.263852 -0.370943,-0.37042 -0.661746,-0.827812 -0.803215,-1.334844 1.510591,-0.0049 3.021483,0.0095 4.531886,-0.0075 2.594047,-0.08226 5.188837,0.0168 7.783277,0.01026 0.12381,-0.746918 0.18464,-1.511449 0.0701,-2.263805 -0.2416,-1.821203 -1.28659,-3.479173 -2.71932,-4.606742 -1.59499,-1.269892 -3.6378,-1.917965 -5.668292,-1.912669 z m 0.310934,3.532786 c 0.06239,2.25e-4 0.124954,0.0016 0.187332,0.0033 1.244036,0.04345 2.536946,0.451069 3.409186,1.375054 0.28046,0.301156 0.50563,0.658873 0.62873,1.052991 h -8.580502 c 0.189837,-0.839293 0.897723,-1.444147 1.632952,-1.822421 0.839009,-0.424832 1.784877,-0.612666 2.722302,-0.609042 z" />
      <path
         id="path54663-3-36-3"
         style="fill:#ffffff;fill-opacity:0.998039;stroke-width:0.373292"
         class="line"
         d="m 4.966501,15.478082 2.403513,2.386745 v 2.434003 10.727302 h 4.001546 l 17.311132,-1.73e-4 v -3.35284 H 11.147634 V 14.537635 l 6.136133,-5.0616166 2.707442,0.9210796 8.691483,0.121159 -11.398925,-4.6272856 z" />
      <path
         id="path32204-7-6"
         style="fill:#ffffff;fill-opacity:1;stroke-width:0.0580096;stroke-miterlimit:4;stroke-dasharray:none"
         d="m 20.083124,12.654086 c -2.441418,0.01452 -4.860261,1.335569 -6.068668,3.477204 -1.314934,2.168261 -1.215667,5.091368 0.239533,7.168939 1.439338,2.195025 4.199223,3.394808 6.789965,3.02156 0.995581,-0.129083 1.978082,-0.466416 2.825124,-1.008567 0.11771,0.352575 -0.285692,1.226261 0.326194,1.08466 1.016277,-8e-6 2.032554,0 3.048832,0 0,-4.581796 0,-9.163591 0,-13.745386 -1.125009,0 -2.250018,0 -3.375026,0 -0.09723,0.284098 0.241309,1.385207 -0.261211,0.909461 -1.089508,-0.58321 -2.288703,-0.890999 -3.524743,-0.907871 z m 0.256432,4.171402 c 1.641712,0.06549 2.964296,1.812017 2.468219,3.403933 -0.403483,1.604712 -2.376357,2.465187 -3.851166,1.750986 -1.465044,-0.594953 -2.117568,-2.593301 -1.178334,-3.895328 0.52684,-0.864162 1.569372,-1.312842 2.561281,-1.259591 z" />
      <path
         style="fill:#ffffff;fill-opacity:0;stroke-width:0.0584528"
         d="m 19.818954,27.500019 c -1.879034,-0.29537 -3.419163,-1.065844 -4.751755,-2.377138 -0.829056,-0.815806 -1.304229,-1.470528 -1.763213,-2.429465 -0.983718,-2.055238 -1.042156,-4.557448 -0.15512,-6.641954 1.089226,-2.559644 3.316574,-4.373759 6.195264,-5.045876 0.749252,-0.174935 2.608898,-0.179242 3.402401,-0.0079 0.805265,0.173903 1.531652,0.422248 2.246858,0.768179 0.346337,0.167516 0.663377,0.283761 0.704538,0.258323 0.05071,-0.03134 0.06079,-0.229013 0.03127,-0.613097 l -0.04357,-0.566845 h 2.069269 2.069267 v 8.377239 8.377237 h -1.992736 c -1.619546,0 -2.007404,-0.01767 -2.071074,-0.09439 -0.05388,-0.06492 -0.06402,-0.266107 -0.03247,-0.644403 0.02521,-0.302506 0.02072,-0.550013 -0.01005,-0.550013 -0.03075,0 -0.348017,0.14968 -0.70503,0.332618 -1.560137,0.799444 -3.512494,1.121762 -5.19385,0.857464 z m 2.42199,-5.143703 c 2.480459,-0.900359 3.088913,-3.880763 1.148144,-5.623968 -0.693473,-0.622876 -1.532348,-0.913832 -2.45091,-0.850071 -1.359103,0.09434 -2.486392,0.867936 -3.037308,2.084339 -0.230513,0.508969 -0.287096,1.492131 -0.119321,2.073273 0.235077,0.81425 0.777552,1.573239 1.410546,1.973522 0.307208,0.194267 0.866296,0.420671 1.237345,0.501067 0.451745,0.09788 1.313368,0.02265 1.811504,-0.158162 z"
         id="path28738" />
      <path
         style="fill:#ffffff;fill-opacity:0;stroke-width:0.0584528"
         d="m 19.818954,27.500019 c -1.879034,-0.29537 -3.419163,-1.065844 -4.751755,-2.377138 -0.829056,-0.815806 -1.304229,-1.470528 -1.763213,-2.429465 -0.983718,-2.055238 -1.042156,-4.557448 -0.15512,-6.641954 1.089226,-2.559644 3.316574,-4.373759 6.195264,-5.045876 0.749252,-0.174935 2.608898,-0.179242 3.402401,-0.0079 0.805265,0.173903 1.531652,0.422248 2.246858,0.768179 0.346337,0.167516 0.663377,0.283761 0.704538,0.258323 0.05071,-0.03134 0.06079,-0.229013 0.03127,-0.613097 l -0.04357,-0.566845 h 2.069269 2.069267 v 8.377239 8.377237 h -1.992736 c -1.619546,0 -2.007404,-0.01767 -2.071074,-0.09439 -0.05388,-0.06492 -0.06402,-0.266107 -0.03247,-0.644403 0.02521,-0.302506 0.02072,-0.550013 -0.01005,-0.550013 -0.03075,0 -0.348017,0.14968 -0.70503,0.332618 -1.560137,0.799444 -3.512494,1.121762 -5.19385,0.857464 z m 2.42199,-5.143703 c 2.480459,-0.900359 3.088913,-3.880763 1.148144,-5.623968 -0.693473,-0.622876 -1.532348,-0.913832 -2.45091,-0.850071 -1.359103,0.09434 -2.486392,0.867936 -3.037308,2.084339 -0.230513,0.508969 -0.287096,1.492131 -0.119321,2.073273 0.235077,0.81425 0.777552,1.573239 1.410546,1.973522 0.307208,0.194267 0.866296,0.420671 1.237345,0.501067 0.451745,0.09788 1.313368,0.02265 1.811504,-0.158162 z"
         id="path28777" />
    </g>
  </g>
</svg>
