<?xml version="1.0" encoding="UTF-8" standalone="no"?>
<!-- Created with Inkscape (http://www.inkscape.org/) -->

<svg
   width="136.05191mm"
   height="29.13517mm"
   viewBox="0 0 136.05191 29.13517"
   version="1.1"
   id="svg4303"
   inkscape:version="1.1.2 (0a00cf5339, 2022-02-04)"
   sodipodi:docname="logo-grey.svg"
   inkscape:export-filename="/home/georgios/Projects/GGY/material/logo/logo-grey.png"
   inkscape:export-xdpi="96"
   inkscape:export-ydpi="96"
   xmlns:inkscape="http://www.inkscape.org/namespaces/inkscape"
   xmlns:sodipodi="http://sodipodi.sourceforge.net/DTD/sodipodi-0.dtd"
   xmlns="http://www.w3.org/2000/svg"
   xmlns:svg="http://www.w3.org/2000/svg">
  <sodipodi:namedview
     id="namedview4305"
     pagecolor="#ffffff"
     bordercolor="#666666"
     borderopacity="1.0"
     inkscape:pageshadow="2"
     inkscape:pageopacity="0.0"
     inkscape:pagecheckerboard="0"
     inkscape:document-units="mm"
     showgrid="false"
     fit-margin-top="0"
     fit-margin-left="0"
     fit-margin-right="0"
     fit-margin-bottom="0"
     inkscape:zoom="0.61647026"
     inkscape:cx="177.62414"
     inkscape:cy="60.019116"
     inkscape:window-width="1920"
     inkscape:window-height="1051"
     inkscape:window-x="0"
     inkscape:window-y="0"
     inkscape:window-maximized="1"
     inkscape:current-layer="layer1" />
  <defs
     id="defs4300" />
  <g
     inkscape:label="Layer 1"
     inkscape:groupmode="layer"
     id="layer1"
     transform="translate(-57.726934,-132.64484)">
    <g
       id="g4413">
      <path
         id="path54663-3-3"
         style="fill:#4d4d4d;fill-opacity:0.998039;stroke-width:0.432697"
         class="line"
         d="m 57.726934,143.75764 2.786007,2.76657 v 2.82135 12.43445 h 4.63835 l 20.066019,-2e-4 V 157.8934 H 64.89173 v -15.22586 l 7.112635,-5.86713 3.138303,1.06766 10.074642,0.14044 -13.212945,-5.36367 z"
         sodipodi:nodetypes="cccccccccccccc"
         inkscape:export-filename="/home/georgios/Projects/GGY/material/alpha.png"
         inkscape:export-xdpi="96"
         inkscape:export-ydpi="96" />
      <path
         id="path32204-6"
         style="fill:#4d4d4d;fill-opacity:0.998039;stroke-width:0.0711351;stroke-miterlimit:4;stroke-dasharray:none"
         d="m 75.718515,139.56067 c -2.993823,0.0178 -5.959962,1.63775 -7.441788,4.26396 -1.612456,2.65887 -1.490729,6.24336 0.293731,8.79102 1.765008,2.69168 5.149354,4.16293 8.326288,3.70523 1.220844,-0.15829 2.42565,-0.57195 3.464347,-1.23677 0.144343,0.43235 -0.350333,1.50372 0.4,1.33008 1.246224,-1e-5 2.492448,0 3.738672,0 0,-5.6185 0,-11.23698 0,-16.85547 -1.379558,0 -2.759115,0 -4.138672,0 -0.119235,0.34837 0.295909,1.69863 -0.320313,1.11523 -1.336024,-0.71517 -2.806554,-1.09259 -4.322265,-1.11328 z m 0.314453,5.11523 c 2.013172,0.0803 3.635009,2.22201 3.026687,4.17413 -0.494776,1.9678 -2.914039,3.02296 -4.722545,2.14716 -1.79653,-0.72956 -2.596697,-3.18006 -1.444948,-4.7767 0.646045,-1.05968 1.924464,-1.60988 3.140806,-1.54459 z" />
      <path
         id="path32204-3-7"
         style="fill:#4d4d4d;fill-opacity:0.998039;stroke-width:0.0711351;stroke-miterlimit:4;stroke-dasharray:none"
         d="m 94.890783,156.4311 c 2.993818,-0.0178 5.959957,-1.63776 7.441777,-4.26397 1.61246,-2.65887 1.49073,-6.24336 -0.29373,-8.79102 -1.76501,-2.69168 -5.149349,-4.16293 -8.326277,-3.70523 -1.22084,0.15829 -2.42565,0.57195 -3.46434,1.23677 -0.14435,-0.43235 0.35033,-1.50372 -0.4,-1.33008 -1.24623,2e-5 -2.49245,0 -3.73868,0 v 22.20224 h 4.13868 c 0.11923,-0.34838 -0.29591,-7.04539 0.32031,-6.462 1.33602,0.71517 2.80655,1.0926 4.32226,1.11329 z m -0.31445,-5.11524 c -2.01317,-0.0803 -3.63501,-2.22201 -3.02668,-4.17413 0.49477,-1.9678 2.91403,-3.02296 4.722534,-2.14716 1.796524,0.72956 2.596694,3.18006 1.444944,4.7767 -0.64605,1.05968 -1.924461,1.60988 -3.140798,1.54459 z"
         sodipodi:nodetypes="cccccccccccccccc" />
      <path
         id="path32204-3-3-5"
         style="fill:#4d4d4d;fill-opacity:0.998039;stroke-width:0.0711351;stroke-miterlimit:4;stroke-dasharray:none"
         d="m 112.90717,156.43058 c 2.99382,-0.0178 5.95996,-1.63747 7.44178,-4.26368 1.61246,-2.65887 1.49073,-6.24336 -0.29373,-8.79102 -1.76501,-2.69168 -5.14935,-4.16293 -8.32628,-3.70523 -1.22084,0.15829 -2.42565,0.57195 -3.46434,1.23677 -0.14435,-0.43235 0.35033,-1.50348 -0.4,-1.32984 -1.24623,10e-6 -2.49245,-2.4e-4 -3.73868,-2.4e-4 v 22.20224 h 4.13868 c 0.11923,-0.34838 -0.29591,-7.04539 0.32031,-6.462 1.33602,0.71517 2.80655,1.09231 4.32226,1.113 z m -0.31445,-5.11495 c -2.01317,-0.0803 -3.63501,-2.22201 -3.02668,-4.17413 0.49477,-1.9678 2.91403,-3.02296 4.72254,-2.14716 1.79652,0.72956 2.59669,3.18006 1.44494,4.7767 -0.64605,1.05968 -1.92446,1.60988 -3.1408,1.54459 z"
         sodipodi:nodetypes="cccccccccccccccc" />
      <path
         id="path32204-3-3-8-8-3"
         style="fill:#4d4d4d;fill-opacity:0.998039;stroke-width:0.0711351;stroke-miterlimit:4;stroke-dasharray:none"
         d="m 185.20533,156.43058 c 2.99382,-0.0178 5.95995,-1.63748 7.44177,-4.26368 1.61246,-2.65887 1.49074,-6.24336 -0.29373,-8.79102 -1.76501,-2.69168 -5.14935,-4.16293 -8.32628,-3.70523 -1.22084,0.15829 -2.42565,0.57195 -3.46434,1.23677 -0.14435,-0.43235 0.35034,-1.50348 -0.4,-1.32984 -1.24623,10e-6 -2.49244,-2.4e-4 -3.73867,-2.4e-4 v 22.20224 h 4.13867 c 0.11923,-0.34838 -0.2959,-7.0454 0.32032,-6.46201 1.33601,0.71517 2.80654,1.09232 4.32226,1.11301 z m -0.31445,-5.11495 c -2.01317,-0.0803 -3.63501,-2.22201 -3.02668,-4.17413 0.49476,-1.9678 2.91403,-3.02296 4.72254,-2.14716 1.79652,0.72956 2.59669,3.18006 1.44494,4.7767 -0.64605,1.05968 -1.92446,1.60988 -3.1408,1.54459 z"
         sodipodi:nodetypes="cccccccccccccccc" />
      <path
         id="path32204-3-3-6-5"
         style="fill:#4d4d4d;fill-opacity:0.998039;stroke-width:0.0677306;stroke-miterlimit:4;stroke-dasharray:none"
         d="m 122.14231,133.75944 v 23.73217 h 4.66801 v -7.07995 l 5.83136,7.07995 h 5.26813 l -8.30428,-9.81622 7.77511,-7.03678 h -5.26813 l -5.30219,4.7904 v -11.66957 c -1.1298,10e-6 -3.53822,0 -4.66801,0 z"
         sodipodi:nodetypes="cccccccccccc" />
      <path
         id="path38557-6"
         style="fill:#4d4d4d;fill-opacity:1;stroke-width:0.32493;stroke-miterlimit:4;stroke-dasharray:none"
         d="m 144.51176,139.55916 c -0.0791,2.1e-4 -0.1581,0.001 -0.23719,0.003 -2.78458,0.0525 -5.58065,1.14764 -7.52357,3.16932 -1.47444,1.51154 -2.40067,3.57829 -2.41174,5.70146 -0.037,2.06599 0.79294,4.10248 2.17144,5.62859 1.87721,2.10413 4.65968,3.29233 7.45691,3.41634 2.95282,0.14569 5.99672,-0.87775 8.1225,-2.96261 0.6376,-0.61513 1.16891,-1.33146 1.60094,-2.10323 -4.12274,-1.28508 0,0 -4.12274,-1.28508 -0.11186,0.18475 -0.24029,0.35857 -0.3948,0.51418 -1.01931,1.072 -2.51024,1.57805 -3.96048,1.66605 -1.63341,0.098 -3.37302,-0.35506 -4.56096,-1.52704 -0.4482,-0.44756 -0.79956,-1.0002 -0.97049,-1.61282 1.82517,-0.006 3.65069,0.0114 5.47563,-0.009 3.13423,-0.0994 6.26937,0.0203 9.40409,0.0124 0.1496,-0.90247 0.22308,-1.8262 0.0847,-2.73524 -0.2919,-2.20046 -1.55451,-4.20368 -3.28559,-5.56607 -1.92714,-1.53433 -4.39535,-2.31736 -6.84867,-2.31097 z m 0.3757,4.26848 c 0.0755,2.6e-4 0.15097,0.002 0.22633,0.004 1.50311,0.0525 3.06525,0.545 4.11913,1.66139 0.33884,0.36388 0.61092,0.79609 0.75965,1.27228 h -10.36733 c 0.22937,-1.01408 1.08467,-1.74489 1.973,-2.20194 1.01373,-0.5133 2.15658,-0.74024 3.28921,-0.73587 z"
         sodipodi:nodetypes="cccccccccccccccccccscccccss" />
      <path
         id="path38557-3-2"
         style="fill:#4d4d4d;fill-opacity:1;stroke-width:0.32493;stroke-miterlimit:4;stroke-dasharray:none"
         d="m 165.55476,139.55916 c -0.0791,2.1e-4 -0.15809,0.001 -0.23719,0.003 -2.78459,0.0525 -5.58064,1.14764 -7.52357,3.16932 -1.47444,1.51154 -2.40067,3.57829 -2.41174,5.70146 -0.037,2.06599 0.79294,4.10248 2.17144,5.62859 1.8772,2.10413 4.65968,3.29233 7.45691,3.41634 2.95282,0.14569 5.99672,-0.87775 8.1225,-2.96261 0.63759,-0.61513 1.16891,-1.33146 1.60094,-2.10323 -4.12274,-1.28508 0,0 -4.12274,-1.28508 -0.11186,0.18475 -0.24029,0.35857 -0.3948,0.51418 -1.01931,1.072 -2.51024,1.57805 -3.96049,1.66605 -1.63341,0.098 -3.37302,-0.35506 -4.56096,-1.52704 -0.44819,-0.44756 -0.79955,-1.0002 -0.97048,-1.61282 1.82516,-0.006 3.65069,0.0114 5.47563,-0.009 3.13423,-0.0994 6.26936,0.0203 9.40408,0.0124 0.1496,-0.90247 0.22308,-1.8262 0.0847,-2.73524 -0.2919,-2.20046 -1.55451,-4.20368 -3.28559,-5.56607 -1.92714,-1.53433 -4.39535,-2.31736 -6.84867,-2.31097 z m 0.37569,4.26848 c 0.0755,2.6e-4 0.15097,0.002 0.22634,0.004 1.50311,0.0525 3.06525,0.545 4.11913,1.66139 0.33884,0.36388 0.61091,0.79609 0.75964,1.27228 h -10.36732 c 0.22937,-1.01408 1.08467,-1.74489 1.973,-2.20194 1.01373,-0.5133 2.15658,-0.74024 3.28921,-0.73587 z"
         sodipodi:nodetypes="cccccccccccccccccccscccccss" />
    </g>
  </g>
</svg>
